          <svg width="24" height="25" viewBox="0 0 24 25" fill="none" xmlns="http://www.w3.org/2000/svg">
            <path
              d="M7.63636 7.04545V12.5C7.63636 13.1025 7.14794 13.5909 6.54545 13.5909C5.94297 13.5909 5.45455 13.1025 5.45455 12.5V7.04545C5.45954 4.99608 7.37519 3.77273 9.27273 3.77273C10.5062 3.77273 11.3931 4.14457 12 4.68399C12.6069 4.14457 13.4938 3.77273 14.7273 3.77273C16.624 3.77273 18.5391 4.99523 18.5455 7.04409V12.5C18.5455 13.1025 18.0571 13.5909 17.4545 13.5909C16.852 13.5909 16.3636 13.1025 16.3636 12.5V7.04409C16.2988 6.21792 15.4468 5.95455 14.7273 5.95455C14.0198 5.95455 13.1642 6.22355 13.0909 7.04409V10.3182C13.0909 10.9207 12.6025 11.4091 12 11.4091C11.3975 11.4091 10.9091 10.9207 10.9091 10.3182V7.04545C10.844 6.216 9.9852 5.95455 9.27273 5.95455C8.56531 5.95455 7.70963 6.22492 7.63636 7.04545Z"
              fill="#F5F5F6" />
            <path fill-rule="evenodd" clip-rule="evenodd"
              d="M16.3636 0.5H7.63636C3.35232 0.5 0.0937855 3.79853 0 8.12463V13.5909C0 19.1705 3.88181 24.5 9.81818 24.5H15.7964C17.3146 24.5 18.5455 23.2691 18.5455 21.7509C18.5455 20.2599 17.3078 19.0821 15.8182 19.0455C15.5107 19.0379 15.1457 19.0416 14.7435 19.0459C12.4757 19.0695 9.01958 19.1055 7.94532 17.1868C12.8812 18.0919 24 19.5909 24 11.4091V8.13636C23.898 3.81127 20.6552 0.5 16.3636 0.5ZM2.18182 13.5909V8.12463C2.30811 4.98779 4.51484 2.68182 7.63636 2.68182H16.3636C19.4914 2.68182 21.6847 5.00091 21.8182 8.13636V11.4091C21.8182 17.9545 10.1935 15.5602 6.81004 14.7144C6.13241 14.545 5.45455 15.0742 5.45455 15.7727C5.45455 16.9556 5.75488 17.9667 6.39185 18.7785C8.21988 21.1086 11.8868 21.1441 14.7473 21.1719C15.118 21.1755 15.4753 21.1789 15.8132 21.1872C16.1201 21.1949 16.3636 21.4448 16.3636 21.7509C16.3636 22.0642 16.1097 22.3182 15.7964 22.3182H9.81818C5.07668 22.3182 2.18182 17.972 2.18182 13.5909Z"
              fill="#F5F5F6" />
          </svg>