<svg width="24" height="24" viewBox="0 0 24 24" fill="none" xmlns="http://www.w3.org/2000/svg">
<path fill-rule="evenodd" clip-rule="evenodd" d="M24 21.7978L22.3032 23.4113L17.2116 18.5708L18.9084 16.9562L24 21.7978ZM9.59999 16.5648C5.63039 16.5648 2.40001 13.4942 2.40001 9.71842C2.40001 5.94375 5.63039 2.87199 9.59999 2.87199C13.5696 2.87199 16.8 5.94375 16.8 9.71842C16.8 13.4942 13.5696 16.5648 9.59999 16.5648ZM9.59999 0.589844C4.29839 0.589844 0 4.67716 0 9.71842C0 14.7597 4.29839 18.847 9.59999 18.847C14.9016 18.847 19.2 14.7597 19.2 9.71842C19.2 4.67716 14.9016 0.589844 9.59999 0.589844Z" fill="#547D87"/>
</svg>
