          <svg width="24" height="29" viewBox="0 0 24 29" fill="none" xmlns="http://www.w3.org/2000/svg">
            <path
              d="M19.0353 5.04471C18.0257 3.88723 17.4188 2.37798 17.4188 0.728027H16.1536C16.4794 2.53147 17.5529 4.07911 19.0353 5.04471Z"
              fill="#F5F5F6" />
            <path
              d="M7.32917 14.3689C5.13747 14.3689 3.35473 16.1532 3.35473 18.3466C3.35473 19.8752 4.22374 21.2053 5.4889 21.8703C5.01607 21.2181 4.73491 20.4188 4.73491 19.5489C4.73491 17.3555 6.51765 15.5712 8.70939 15.5712C9.11833 15.5712 9.51445 15.6414 9.88511 15.7566V10.9219C9.50165 10.8707 9.11192 10.8387 8.70939 10.8387C8.63907 10.8387 8.57517 10.8451 8.50488 10.8451V14.5543C8.12789 14.4391 7.7381 14.3689 7.32917 14.3689Z"
              fill="#F5F5F6" />
            <path
              d="M22.6198 7.16791V10.8451C20.1662 10.8451 17.8914 10.0586 16.0383 8.72832V18.353C16.0383 23.1558 12.1342 27.0697 7.32906 27.0697C5.47602 27.0697 3.7508 26.4813 2.33865 25.49C3.92969 27.1975 6.19806 28.272 8.70928 28.272C13.508 28.272 17.4185 24.3644 17.4185 19.5553V9.93061C19.2715 11.2608 21.5462 12.0473 24 12.0473V7.31506C23.5207 7.31506 23.0606 7.26385 22.6198 7.16791Z"
              fill="#F5F5F6" />
            <path
              d="M16.0383 18.353V8.72832C17.8914 10.0586 20.1662 10.8451 22.6198 10.8451V7.16791C21.2013 6.86741 19.9554 6.09996 19.0353 5.04471C17.5529 4.07911 16.4856 2.53147 16.1469 0.728027H12.6837L12.6772 19.7024C12.6007 21.8256 10.8498 23.5332 8.7093 23.5332C7.38018 23.5332 6.21084 22.8745 5.48241 21.8768C4.21724 21.2053 3.34824 19.8815 3.34824 18.353C3.34824 16.1595 5.13098 14.3752 7.32267 14.3752C7.73161 14.3752 8.12778 14.4456 8.49839 14.5607V10.8515C3.79553 10.9538 0 14.8165 0 19.5553C0 21.8447 0.888182 23.9297 2.33865 25.49C3.7508 26.4813 5.47602 27.0697 7.32906 27.0697C12.1277 27.0697 16.0383 23.1558 16.0383 18.353Z"
              fill="#F5F5F6" />
          </svg>