<svg width="24" height="25" viewBox="0 0 24 25" fill="none" xmlns="http://www.w3.org/2000/svg">
            <path fill-rule="evenodd" clip-rule="evenodd"
              d="M12 19.0455C15.6149 19.0455 18.5455 16.1149 18.5455 12.5C18.5455 8.88504 15.6149 5.95455 12 5.95455C8.38504 5.95455 5.45455 8.88504 5.45455 12.5C5.45455 16.1149 8.38504 19.0455 12 19.0455ZM12 16.8636C14.4099 16.8636 16.3636 14.9099 16.3636 12.5C16.3636 10.09 14.4099 8.13636 12 8.13636C9.59003 8.13636 7.63636 10.09 7.63636 12.5C7.63636 14.9099 9.59003 16.8636 12 16.8636Z"
              fill="#F5F5F6" />
            <path
              d="M18.5455 4.86364C17.9429 4.86364 17.4545 5.35206 17.4545 5.95455C17.4545 6.55703 17.9429 7.04545 18.5455 7.04545C19.148 7.04545 19.6364 6.55703 19.6364 5.95455C19.6364 5.35206 19.148 4.86364 18.5455 4.86364Z"
              fill="#F5F5F6" />
            <path fill-rule="evenodd" clip-rule="evenodd"
              d="M0.713411 4.07388C0 5.47403 0 7.30694 0 10.9727V14.0273C0 17.6931 0 19.526 0.713411 20.9261C1.34095 22.1577 2.34227 23.1591 3.57388 23.7865C4.97403 24.5 6.80694 24.5 10.4727 24.5H13.5273C17.1931 24.5 19.026 24.5 20.4261 23.7865C21.6577 23.1591 22.6591 22.1577 23.2865 20.9261C24 19.526 24 17.6931 24 14.0273V10.9727C24 7.30694 24 5.47403 23.2865 4.07388C22.6591 2.84227 21.6577 1.84095 20.4261 1.21341C19.026 0.5 17.1931 0.5 13.5273 0.5H10.4727C6.80694 0.5 4.97403 0.5 3.57388 1.21341C2.34227 1.84095 1.34095 2.84227 0.713411 4.07388ZM13.5273 2.68182H10.4727C8.60383 2.68182 7.33336 2.68352 6.35136 2.76375C5.39481 2.8419 4.90564 2.98355 4.56441 3.15742C3.74334 3.57579 3.07579 4.24334 2.65742 5.06441C2.48355 5.40564 2.3419 5.89481 2.26375 6.85136C2.18352 7.83336 2.18182 9.10383 2.18182 10.9727V14.0273C2.18182 15.8962 2.18352 17.1666 2.26375 18.1486C2.3419 19.1052 2.48355 19.5944 2.65742 19.9356C3.07579 20.7567 3.74334 21.4242 4.56441 21.8425C4.90564 22.0164 5.39481 22.1581 6.35136 22.2363C7.33336 22.3164 8.60383 22.3182 10.4727 22.3182H13.5273C15.3962 22.3182 16.6666 22.3164 17.6486 22.2363C18.6052 22.1581 19.0944 22.0164 19.4356 21.8425C20.2567 21.4242 20.9242 20.7567 21.3425 19.9356C21.5164 19.5944 21.6581 19.1052 21.7363 18.1486C21.8164 17.1666 21.8182 15.8962 21.8182 14.0273V10.9727C21.8182 9.10383 21.8164 7.83336 21.7363 6.85136C21.6581 5.89481 21.5164 5.40564 21.3425 5.06441C20.9242 4.24334 20.2567 3.57579 19.4356 3.15742C19.0944 2.98355 18.6052 2.8419 17.6486 2.76375C16.6666 2.68352 15.3962 2.68182 13.5273 2.68182Z"
              fill="#F5F5F6" />
          </svg>